<svg xmlns="http://www.w3.org/2000/svg" xmlns:xlink="http://www.w3.org/1999/xlink" width="500" zoomAndPan="magnify" viewBox="0 0 375 374.999991" height="500" preserveAspectRatio="xMidYMid meet" version="1.0"><defs><clipPath id="2823c3e297"><path d="M 13.882812 105 L 207 105 L 207 361.976562 L 13.882812 361.976562 Z M 13.882812 105 " clip-rule="nonzero"/></clipPath><clipPath id="87d4508081"><path d="M 19 13.226562 L 361.132812 13.226562 L 361.132812 356 L 19 356 Z M 19 13.226562 " clip-rule="nonzero"/></clipPath></defs><g clip-path="url(#2823c3e297)"><path fill="#ffffff" d="M 13.882812 361.664062 C 13.882812 361.664062 152.4375 304.152344 195.128906 201.324219 C 242.195312 80.195312 130.652344 108.085938 130.652344 108.085938 C 270.417969 170.320312 13.882812 361.664062 13.882812 361.664062 Z M 13.882812 361.664062 " fill-opacity="1" fill-rule="nonzero"/></g><path fill="#ffffff" d="M 281.113281 109.804688 C 278.941406 149.917969 217.292969 153.824219 217.292969 153.824219 C 217.832031 169.007812 209.03125 187.847656 209.03125 187.847656 C 299.546875 167.257812 281.113281 109.804688 281.113281 109.804688 Z M 281.113281 109.804688 " fill-opacity="1" fill-rule="nonzero"/><path fill="#ffffff" d="M 209.335938 58.382812 C 195.144531 58.382812 183.632812 69.894531 183.632812 84.085938 C 183.632812 98.28125 195.144531 109.789062 209.335938 109.789062 C 223.527344 109.789062 235.039062 98.28125 235.039062 84.085938 C 235.039062 69.894531 223.542969 58.382812 209.335938 58.382812 Z M 209.335938 58.382812 " fill-opacity="1" fill-rule="nonzero"/><path fill="#ffffff" d="M 138.304688 313.871094 C 173.753906 306.46875 319.945312 250.082031 199.328125 213.578125 C 193.820312 226.359375 187.84375 233.5 187.84375 233.5 C 187.84375 233.5 300.1875 241.394531 138.304688 313.871094 Z M 138.304688 313.871094 " fill-opacity="1" fill-rule="nonzero"/><g clip-path="url(#87d4508081)"><path fill="#ffffff" d="M 190.03125 13.375 C 95.742188 13.375 19.023438 90.089844 19.023438 184.378906 L 19.023438 184.394531 C 21.109375 224.742188 38.085938 263.207031 65.027344 291.125 C 41.421875 260.265625 29.953125 221.578125 32.3125 184.394531 C 32.3125 97.421875 103.070312 26.664062 190.03125 26.664062 C 276.988281 26.664062 347.761719 97.421875 347.761719 184.394531 C 347.761719 271.367188 277.003906 342.125 190.03125 342.125 C 160.203125 344.398438 129.136719 337.972656 101.746094 323.066406 C 126.703125 341.6875 157.699219 353.257812 190.03125 355.414062 C 284.332031 355.414062 361.050781 278.699219 361.050781 184.394531 C 361.050781 90.089844 284.332031 13.375 190.03125 13.375 Z M 190.03125 13.375 " fill-opacity="1" fill-rule="nonzero"/></g></svg>